<svg width="56" height="56" viewBox="0 0 56 56" fill="none" xmlns="http://www.w3.org/2000/svg">
<rect width="56" height="56" rx="28" fill="#09F0A7" fill-opacity="0.1"/>
<path d="M28 39.6666C34.4433 39.6666 39.6666 34.4433 39.6666 28C39.6666 21.5567 34.4433 16.3333 28 16.3333C21.5567 16.3333 16.3333 21.5567 16.3333 28C16.3333 34.4433 21.5567 39.6666 28 39.6666Z" stroke="#030213" stroke-width="2.33333" stroke-linecap="round" stroke-linejoin="round"/>
<path d="M28 35C31.866 35 35 31.866 35 28C35 24.134 31.866 21 28 21C24.134 21 21 24.134 21 28C21 31.866 24.134 35 28 35Z" stroke="#030213" stroke-width="2.33333" stroke-linecap="round" stroke-linejoin="round"/>
<path d="M28 30.3334C29.2887 30.3334 30.3334 29.2887 30.3334 28C30.3334 26.7114 29.2887 25.6667 28 25.6667C26.7114 25.6667 25.6667 26.7114 25.6667 28C25.6667 29.2887 26.7114 30.3334 28 30.3334Z" stroke="#030213" stroke-width="2.33333" stroke-linecap="round" stroke-linejoin="round"/>
</svg>
